<?xml version="1.0" encoding="UTF-8"?>
<svg width="1024px" height="1023px" viewBox="0 0 1024 1023" version="1.1" xmlns="http://www.w3.org/2000/svg" xmlns:xlink="http://www.w3.org/1999/xlink">
    <title>Figma Icon (Mono-line black)</title>
    <g id="Figma-Icon-(Mono-line-black)" stroke="none" fill="none" fill-rule="evenodd">
        <path d="M276.502841,371.054 C230.494094,341.063 200.078,289.139 200.078,230.1065 C200.078,137.264 275.313787,62 368.121484,62 L656.034516,62 C748.842213,62 824.078,137.264 824.078,230.1065 C824.078,289.139 793.663405,341.063 747.653159,371.054 C793.663405,401.045 824.078,452.9705 824.078,512.0015 C824.078,604.844 748.842213,680.108 656.034516,680.108 L652.971165,680.108 C609.100617,680.108 569.155596,663.29 539.228319,635.747 L539.228319,792.3605 C539.228319,886.241 462.346149,962 368.883198,962 C276.26593,962 200.078,886.9265 200.078,793.8935 C200.078,734.8625 230.492595,682.9385 276.499842,652.9475 C230.492595,622.9565 200.078,571.0325 200.078,512.0015 C200.078,452.9705 230.494094,401.045 276.502841,371.054 Z M539.228319,512.0015 C539.228319,574.844 590.153722,625.787 652.971165,625.787 L656.034516,625.787 C718.853459,625.787 769.777363,574.844 769.777363,512.0015 C769.777363,449.159 718.853459,398.216 656.034516,398.216 L652.971165,398.216 C590.153722,398.216 539.228319,449.159 539.228319,512.0015 Z M484.927681,398.216 L368.121484,398.216 C305.302541,398.216 254.378637,449.159 254.378637,512.0015 C254.378637,574.7165 305.097118,625.58 367.739127,625.787 L367.91756,625.787 L484.927681,625.787 L484.927681,398.216 Z M368.121484,680.108 L367.739127,680.108 C305.097118,680.3135 254.378637,731.1785 254.378637,793.8935 C254.378637,856.5455 305.873827,907.679 368.883198,907.679 C432.738252,907.679 484.927681,855.86 484.927681,792.3605 L484.927681,680.108 L368.121484,680.108 Z M484.927681,343.892 L368.121484,343.892 C305.302541,343.892 254.378637,292.949 254.378637,230.1065 C254.378637,167.264 305.302541,116.321 368.121484,116.321 L484.927681,116.321 L484.927681,343.892 Z M656.034516,343.892 L539.228319,343.892 L539.228319,116.321 L656.034516,116.321 C718.853459,116.321 769.777363,167.264 769.777363,230.1065 C769.777363,292.949 718.853459,343.892 656.034516,343.892 Z" id="Shape" fill="#000000"></path>
    </g>
</svg>